<?xml version="1.0" standalone="no"?>
<!DOCTYPE svg PUBLIC "-//W3C//DTD SVG 20010904//EN"
 "http://www.w3.org/TR/2001/REC-SVG-20010904/DTD/svg10.dtd">
<svg version="1.0" xmlns="http://www.w3.org/2000/svg"
 width="1282.000000pt" height="1284.000000pt" viewBox="0 0 1282.000000 1284.000000"
 preserveAspectRatio="xMidYMid meet">
<metadata>
Created by potrace 1.16, written by Peter Selinger 2001-2019
</metadata>
<g transform="translate(0.000000,1284.000000) scale(0.100000,-0.100000)"
fill="#000000" stroke="none">
<path d="M6560 12233 c-303 -10 -620 -47 -925 -108 -1297 -261 -2393 -908
-3229 -1908 -656 -784 -1071 -1714 -1246 -2787 -39 -242 -50 -396 -49 -659 l2
-216 22 290 c27 335 38 437 71 630 121 695 377 1377 757 2010 276 459 682 945
1122 1339 98 89 457 366 473 366 9 0 -3 -10 -128 -103 -369 -274 -791 -688
-1076 -1054 -351 -451 -625 -939 -815 -1451 -44 -117 -46 -146 -5 -51 40 94
41 64 1 -46 -19 -54 -34 -100 -32 -102 2 -1 18 36 37 85 166 440 508 1076 726
1352 42 52 100 131 130 176 93 138 342 424 369 424 8 0 17 5 21 12 5 7 2 9 -7
4 -31 -16 245 246 361 343 292 245 700 519 954 642 80 38 58 24 -94 -63 -262
-149 -535 -332 -756 -510 -166 -132 -366 -309 -359 -316 2 -3 35 21 72 53 116
100 112 95 -57 -75 -423 -423 -749 -869 -1016 -1385 -335 -650 -530 -1328
-596 -2075 -18 -212 -15 -724 6 -940 46 -474 148 -940 295 -1345 22 -60 39
-111 37 -113 -2 -2 -25 51 -52 117 -26 67 -49 119 -51 117 -6 -5 70 -208 134
-361 186 -442 478 -938 759 -1289 218 -271 564 -625 818 -836 184 -152 208
-175 107 -98 -156 117 -305 251 -511 457 -444 444 -768 895 -1045 1451 -124
248 -197 422 -286 680 -75 214 -89 241 -33 61 107 -345 231 -648 373 -911 87
-159 96 -177 83 -165 -19 19 -163 294 -219 417 -84 188 -185 446 -241 618
-146 445 -241 992 -268 1529 -4 75 -9 130 -12 123 -7 -21 17 -495 33 -642 54
-513 170 -986 356 -1447 152 -378 262 -581 532 -979 464 -684 1018 -1206 1757
-1654 122 -74 478 -256 630 -322 841 -364 1874 -544 2675 -464 792 78 1436
251 2070 555 935 450 1790 1227 2329 2118 560 926 838 2019 795 3133 -15 401
-67 777 -159 1145 -54 221 -150 527 -180 578 -10 17 -62 131 -115 252 -300
686 -657 1209 -1184 1736 -424 423 -839 733 -1348 1008 -743 401 -1509 611
-2368 651 -200 9 -250 9 -445 3z m511 -103 c264 -21 577 -67 816 -122 51 -12
91 -23 89 -25 -2 -2 -73 9 -157 26 -677 131 -1354 143 -2009 35 -552 -91
-1082 -263 -1595 -518 -93 -47 -161 -78 -150 -70 35 26 384 199 530 262 505
218 1041 352 1605 401 69 6 139 13 155 15 73 8 594 5 716 -4z m325 -685 c900
-118 1783 -513 2524 -1130 599 -499 1170 -1340 1438 -2116 321 -929 342 -1941
62 -2895 -27 -93 -65 -212 -84 -264 -19 -52 -37 -113 -40 -136 -15 -104 -193
-483 -359 -764 -283 -477 -711 -965 -1132 -1290 -67 -52 -45 -51 -320 -9
-1561 238 -2907 607 -3935 1079 -154 70 -498 246 -531 270 l-21 17 37 94 c62
159 84 189 289 399 152 156 196 209 280 336 l66 102 48 -16 c33 -11 89 -16
193 -16 l146 -1 22 -69 c51 -162 219 -450 378 -647 55 -68 112 -144 127 -169
35 -55 57 -74 121 -104 28 -13 118 -65 200 -116 83 -51 176 -102 208 -112 154
-48 338 5 515 150 34 28 214 222 291 315 9 11 18 51 22 100 9 106 55 328 114
542 52 192 57 229 85 548 18 210 28 267 48 267 5 0 24 -16 43 -36 18 -20 126
-112 239 -204 205 -169 232 -198 306 -325 62 -106 147 -217 233 -304 89 -91
161 -194 230 -327 32 -63 66 -106 152 -195 131 -135 143 -158 134 -248 -8 -85
7 -112 54 -95 25 10 32 9 45 -5 9 -10 16 -26 16 -37 0 -30 15 -46 41 -42 23 3
24 6 24 93 0 81 2 92 24 114 21 21 23 30 18 85 -3 37 -19 97 -42 154 -21 51
-36 94 -34 95 2 2 16 11 32 20 21 14 27 25 27 52 0 29 -4 35 -25 40 -14 3 -37
7 -51 10 -14 3 -45 25 -68 48 -23 23 -64 62 -92 87 -57 53 -97 130 -150 287
-67 200 -133 301 -314 487 -150 154 -165 171 -375 424 -239 288 -248 300 -300
392 -97 172 -132 215 -338 413 -111 106 -223 207 -249 225 -70 48 -215 122
-239 122 -16 0 -19 4 -14 18 25 60 75 206 75 220 0 9 14 44 30 77 17 33 30 66
30 75 0 8 7 28 15 43 24 46 38 151 33 255 -3 94 -5 101 -54 197 -56 109 -93
145 -149 145 -18 0 -38 7 -45 15 -10 12 -10 15 1 15 10 0 10 3 2 11 -11 11
-86 23 -224 35 -104 9 -203 -25 -350 -123 -76 -51 -123 -111 -189 -243 -37
-74 -43 -97 -49 -173 -3 -49 -3 -91 1 -93 5 -3 8 0 8 5 0 6 5 11 11 11 8 0 10
-25 7 -85 -5 -76 2 -108 15 -72 3 6 11 -3 19 -20 19 -44 90 -103 132 -110 l34
-5 0 -99 c1 -71 -2 -99 -11 -99 -114 -3 -283 -25 -340 -45 -25 -9 -79 -15
-132 -15 -50 0 -118 -7 -150 -15 -92 -23 -231 -96 -330 -174 -49 -39 -103 -77
-120 -85 -16 -8 -127 -35 -245 -60 -184 -40 -236 -47 -361 -50 -80 -3 -152 -6
-160 -8 -18 -4 -17 2 32 292 49 286 287 1468 329 1635 19 75 30 145 30 188 0
60 -3 71 -26 94 -26 25 -27 26 -142 20 -180 -9 -329 -60 -496 -171 -516 -344
-880 -1200 -956 -2251 -14 -191 -14 -704 0 -900 12 -173 40 -300 105 -482 19
-53 33 -98 32 -100 -13 -12 -250 271 -345 411 -307 452 -442 873 -483 1499
-18 273 10 588 77 850 161 634 538 1146 1109 1502 353 221 803 368 1264 415
151 15 480 12 647 -5 1188 -125 2207 -869 2766 -2020 l63 -130 3 105 c9 282
-61 692 -176 1030 -258 761 -780 1453 -1497 1985 -355 264 -801 522 -1210 700
-60 27 -114 52 -118 55 -10 9 92 25 248 40 61 5 126 12 145 14 19 3 220 3 446
0 293 -3 445 -8 530 -19z m-995 -4935 c10 -6 31 -34 45 -63 15 -29 49 -85 76
-126 131 -192 239 -475 263 -686 l7 -60 -23 20 c-13 11 -52 45 -85 76 -173
158 -259 222 -362 270 -57 27 -117 58 -133 70 -17 12 -91 52 -166 90 -113 57
-144 69 -185 69 -43 0 -54 -5 -94 -42 -25 -23 -105 -112 -177 -197 -188 -221
-176 -210 -228 -204 -72 8 -190 42 -250 72 -70 35 -158 101 -187 140 l-23 31
23 132 23 133 120 7 c134 7 205 20 250 47 25 15 52 19 155 19 94 0 171 8 305
31 228 40 271 52 353 103 37 23 87 49 112 59 50 20 151 25 181 9z m-1300
-1147 l27 -8 -29 -59 c-52 -107 -109 -254 -125 -322 -21 -91 -42 -130 -108
-195 -70 -69 -206 -141 -206 -108 0 30 111 666 119 679 4 8 21 18 37 22 36 9
249 2 285 -9z"/>
</g>
</svg>
